# xmcd
#
# Track frame offsets: 
#        150
#        20031
#        42526
#        60933
#        85444
#        100824
#        120116
#        135072
#        160727
#        183116
#
# Disc length: 3031 seconds
#
# Revision: 0
# Processed by: cddbd v1.5.2PL0 Copyright (c) Steve Scherf et al.
# Submitted via: ExactAudioCopy v1.0b4
#
DISCID=6e0bd50a
DTITLE=Martin J. Andersen - Six String Renegade
DYEAR=2015
DGENRE=Blues
TTITLE0=The Fire Burns Within
TTITLE1=Six String Renegade
TTITLE2=Dirty Little Angel
TTITLE3=Strange Dreams
TTITLE4=Never Ending Climb
TTITLE5=The Trooper
TTITLE6=Freak Flag Flying
TTITLE7=Funky State Of Mind
TTITLE8=Stranger
TTITLE9=Anthem For Humanity
EXTD=
EXTT0=
EXTT1=
EXTT2=
EXTT3=
EXTT4=
EXTT5=
EXTT6=
EXTT7=
EXTT8=
EXTT9=
PLAYORDER=
